<svg width="2" height="16" viewBox="0 0 24 20" fill="none" xmlns="http://www.w3.org/2000/svg">
<path fill-rule="evenodd" clip-rule="evenodd" d="M17.8098 0.153879C16.7207 -0.118612 15.5743 -0.0500684 14.5255 0.350238C13.4767 0.750544 12.5761 1.4633 11.9456 2.3921C11.322 3.3107 10.9923 4.3968 10.9997 5.50646C9.74241 5.41197 8.51247 5.07196 7.38061 4.50226C5.95765 3.78604 4.73391 2.72901 3.81837 1.42534L3.00001 2.00005L2.10558 1.55283C2.09764 1.56873 2.09014 1.58478 2.08309 1.60096L2.08014 1.60771L2.06857 1.63464C2.05911 1.65689 2.04622 1.6877 2.03045 1.72663C1.99892 1.80446 1.95578 1.91493 1.90529 2.05458C1.80443 2.33355 1.67359 2.73082 1.54749 3.21841C1.29649 4.18894 1.05772 5.54233 1.12604 7.04545C1.19457 8.55295 1.57344 10.2317 2.57707 11.8163C3.32943 13.0043 4.4116 14.1055 5.91475 15.033C4.39638 15.7325 2.72657 16.0679 1.03976 16.0008C0.577035 15.9824 0.162209 16.2841 0.0371604 16.73C-0.0878882 17.1759 0.109558 17.6493 0.514369 17.8742C5.29088 20.5278 10.6509 20.5525 14.8449 18.3203C19.0631 16.0751 22 11.6 22 5.50005L22 5.49674C21.9995 5.33448 21.9918 5.17242 21.9769 5.01102C22.9425 3.93961 23.6291 2.64319 23.9716 1.23666L23 1.00005L22.4236 0.182883C21.7151 0.682622 20.9448 1.08663 20.1326 1.38515C19.4723 0.794604 18.6758 0.370568 17.8098 0.153879ZM3.12398 6.95464C3.07428 5.86128 3.22097 4.84502 3.40466 4.04365C4.29726 4.95253 5.33586 5.71212 6.48143 6.28872C8.199 7.15324 10.1037 7.57955 12.0259 7.52971C12.5679 7.51566 13 7.07223 13 6.53005V5.53005L12.9999 5.51664C12.9904 4.80381 13.2 4.10525 13.6004 3.51542C14.0008 2.9256 14.5727 2.47297 15.2387 2.21876C15.9047 1.96455 16.6327 1.92102 17.3243 2.09407C18.0159 2.26711 18.6376 2.64837 19.1055 3.18628C19.3636 3.48308 19.7717 3.60099 20.1483 3.48758C20.38 3.41783 20.6092 3.3411 20.8357 3.25755C20.6469 3.50421 20.4406 3.73835 20.2178 3.95804C19.9802 4.19242 19.8751 4.52994 19.9378 4.8578C19.9784 5.07006 19.9992 5.28562 20 5.50171C19.9995 10.9009 17.4365 14.6752 13.9052 16.5548C11.307 17.9377 8.13028 18.3234 4.96011 17.5157C6.23421 17.1489 7.4507 16.5815 8.56164 15.8274C8.86207 15.6235 9.02834 15.2728 8.99605 14.9111C8.96375 14.5494 8.73795 14.2337 8.40615 14.0862C6.31605 13.1573 5.0403 11.9677 4.26671 10.7462C3.48909 9.51843 3.18046 8.19714 3.12398 6.95464Z" fill="#2D3648"/>
</svg>
